<svg xmlns="http://www.w3.org/2000/svg" version="1.1" xmlns:xlink="http://www.w3.org/1999/xlink" xmlns:svgjs="http://svgjs.dev/svgjs" width="1440" height="560" preserveAspectRatio="none" viewBox="0 0 1440 560"><g mask="url(&quot;#SvgjsMask1005&quot;)" fill="none"><rect width="1440" height="560" x="0" y="0" fill="#0e2a47"></rect><path d="M108.78 91.48L173.74 128.98L173.74 203.98L108.78 241.48L43.83 203.98L43.83 128.98zM43.83 428.98L108.78 466.48L108.78 541.48L43.83 578.98L-21.12 541.48L-21.12 466.48zM108.78 541.48L173.74 578.98L173.74 653.98L108.78 691.48L43.83 653.98L43.83 578.98zM238.69 91.48L303.64 128.98L303.64 203.98L238.69 241.48L173.74 203.98L173.74 128.98zM498.51 91.48L563.46 128.98L563.46 203.98L498.51 241.48L433.55 203.98L433.55 128.98zM433.55 428.98L498.51 466.48L498.51 541.48L433.55 578.98L368.6 541.48L368.6 466.48zM628.41 91.48L693.37 128.98L693.37 203.98L628.41 241.48L563.46 203.98L563.46 128.98zM628.41 316.48L693.37 353.98L693.37 428.98L628.41 466.48L563.46 428.98L563.46 353.98zM758.32 91.48L823.28 128.98L823.28 203.98L758.32 241.48L693.37 203.98L693.37 128.98zM758.32 541.48L823.28 578.98L823.28 653.98L758.32 691.48L693.37 653.98L693.37 578.98zM823.27 -21.02L888.23 16.48L888.23 91.48L823.27 128.98L758.32 91.48L758.32 16.48zM823.27 428.98L888.23 466.48L888.23 541.48L823.27 578.98L758.32 541.48L758.32 466.48zM888.23 541.48L953.18 578.98L953.18 653.98L888.23 691.48L823.27 653.98L823.27 578.98zM953.18 -21.02L1018.14 16.48L1018.14 91.48L953.18 128.98L888.23 91.48L888.23 16.48zM1018.14 541.48L1083.09 578.98L1083.09 653.98L1018.14 691.48L953.18 653.98L953.18 578.98zM1083.09 -21.02L1148.04 16.48L1148.04 91.48L1083.09 128.98L1018.14 91.48L1018.14 16.48zM1213 -21.02L1277.95 16.48L1277.95 91.48L1213 128.98L1148.04 91.48L1148.04 16.48zM1213 203.98L1277.95 241.48L1277.95 316.48L1213 353.98L1148.04 316.48L1148.04 241.48zM1472.81 -21.02L1537.77 16.48L1537.77 91.48L1472.81 128.98L1407.86 91.48L1407.86 16.48z" stroke="#03305d" stroke-width="2"></path><path d="M101.28 91.48 a7.5 7.5 0 1 0 15 0 a7.5 7.5 0 1 0 -15 0zM166.24 128.98 a7.5 7.5 0 1 0 15 0 a7.5 7.5 0 1 0 -15 0zM166.24 203.98 a7.5 7.5 0 1 0 15 0 a7.5 7.5 0 1 0 -15 0zM101.28 241.48 a7.5 7.5 0 1 0 15 0 a7.5 7.5 0 1 0 -15 0zM36.33 203.98 a7.5 7.5 0 1 0 15 0 a7.5 7.5 0 1 0 -15 0zM36.33 128.98 a7.5 7.5 0 1 0 15 0 a7.5 7.5 0 1 0 -15 0zM36.33 428.98 a7.5 7.5 0 1 0 15 0 a7.5 7.5 0 1 0 -15 0zM101.28 466.48 a7.5 7.5 0 1 0 15 0 a7.5 7.5 0 1 0 -15 0zM101.28 541.48 a7.5 7.5 0 1 0 15 0 a7.5 7.5 0 1 0 -15 0zM36.33 578.98 a7.5 7.5 0 1 0 15 0 a7.5 7.5 0 1 0 -15 0zM-28.62 541.48 a7.5 7.5 0 1 0 15 0 a7.5 7.5 0 1 0 -15 0zM-28.62 466.48 a7.5 7.5 0 1 0 15 0 a7.5 7.5 0 1 0 -15 0zM166.24 578.98 a7.5 7.5 0 1 0 15 0 a7.5 7.5 0 1 0 -15 0zM166.24 653.98 a7.5 7.5 0 1 0 15 0 a7.5 7.5 0 1 0 -15 0zM101.28 691.48 a7.5 7.5 0 1 0 15 0 a7.5 7.5 0 1 0 -15 0zM36.33 653.98 a7.5 7.5 0 1 0 15 0 a7.5 7.5 0 1 0 -15 0zM231.19 91.48 a7.5 7.5 0 1 0 15 0 a7.5 7.5 0 1 0 -15 0zM296.14 128.98 a7.5 7.5 0 1 0 15 0 a7.5 7.5 0 1 0 -15 0zM296.14 203.98 a7.5 7.5 0 1 0 15 0 a7.5 7.5 0 1 0 -15 0zM231.19 241.48 a7.5 7.5 0 1 0 15 0 a7.5 7.5 0 1 0 -15 0zM491.01 91.48 a7.5 7.5 0 1 0 15 0 a7.5 7.5 0 1 0 -15 0zM555.96 128.98 a7.5 7.5 0 1 0 15 0 a7.5 7.5 0 1 0 -15 0zM555.96 203.98 a7.5 7.5 0 1 0 15 0 a7.5 7.5 0 1 0 -15 0zM491.01 241.48 a7.5 7.5 0 1 0 15 0 a7.5 7.5 0 1 0 -15 0zM426.05 203.98 a7.5 7.5 0 1 0 15 0 a7.5 7.5 0 1 0 -15 0zM426.05 128.98 a7.5 7.5 0 1 0 15 0 a7.5 7.5 0 1 0 -15 0zM426.05 428.98 a7.5 7.5 0 1 0 15 0 a7.5 7.5 0 1 0 -15 0zM491.01 466.48 a7.5 7.5 0 1 0 15 0 a7.5 7.5 0 1 0 -15 0zM491.01 541.48 a7.5 7.5 0 1 0 15 0 a7.5 7.5 0 1 0 -15 0zM426.05 578.98 a7.5 7.5 0 1 0 15 0 a7.5 7.5 0 1 0 -15 0zM361.1 541.48 a7.5 7.5 0 1 0 15 0 a7.5 7.5 0 1 0 -15 0zM361.1 466.48 a7.5 7.5 0 1 0 15 0 a7.5 7.5 0 1 0 -15 0zM620.91 91.48 a7.5 7.5 0 1 0 15 0 a7.5 7.5 0 1 0 -15 0zM685.87 128.98 a7.5 7.5 0 1 0 15 0 a7.5 7.5 0 1 0 -15 0zM685.87 203.98 a7.5 7.5 0 1 0 15 0 a7.5 7.5 0 1 0 -15 0zM620.91 241.48 a7.5 7.5 0 1 0 15 0 a7.5 7.5 0 1 0 -15 0zM620.91 316.48 a7.5 7.5 0 1 0 15 0 a7.5 7.5 0 1 0 -15 0zM685.87 353.98 a7.5 7.5 0 1 0 15 0 a7.5 7.5 0 1 0 -15 0zM685.87 428.98 a7.5 7.5 0 1 0 15 0 a7.5 7.5 0 1 0 -15 0zM620.91 466.48 a7.5 7.5 0 1 0 15 0 a7.5 7.5 0 1 0 -15 0zM555.96 428.98 a7.5 7.5 0 1 0 15 0 a7.5 7.5 0 1 0 -15 0zM555.96 353.98 a7.5 7.5 0 1 0 15 0 a7.5 7.5 0 1 0 -15 0zM750.82 91.48 a7.5 7.5 0 1 0 15 0 a7.5 7.5 0 1 0 -15 0zM815.78 128.98 a7.5 7.5 0 1 0 15 0 a7.5 7.5 0 1 0 -15 0zM815.78 203.98 a7.5 7.5 0 1 0 15 0 a7.5 7.5 0 1 0 -15 0zM750.82 241.48 a7.5 7.5 0 1 0 15 0 a7.5 7.5 0 1 0 -15 0zM750.82 541.48 a7.5 7.5 0 1 0 15 0 a7.5 7.5 0 1 0 -15 0zM815.78 578.98 a7.5 7.5 0 1 0 15 0 a7.5 7.5 0 1 0 -15 0zM815.78 653.98 a7.5 7.5 0 1 0 15 0 a7.5 7.5 0 1 0 -15 0zM750.82 691.48 a7.5 7.5 0 1 0 15 0 a7.5 7.5 0 1 0 -15 0zM685.87 653.98 a7.5 7.5 0 1 0 15 0 a7.5 7.5 0 1 0 -15 0zM685.87 578.98 a7.5 7.5 0 1 0 15 0 a7.5 7.5 0 1 0 -15 0zM815.77 -21.02 a7.5 7.5 0 1 0 15 0 a7.5 7.5 0 1 0 -15 0zM880.73 16.48 a7.5 7.5 0 1 0 15 0 a7.5 7.5 0 1 0 -15 0zM880.73 91.48 a7.5 7.5 0 1 0 15 0 a7.5 7.5 0 1 0 -15 0zM815.77 128.98 a7.5 7.5 0 1 0 15 0 a7.5 7.5 0 1 0 -15 0zM750.82 16.48 a7.5 7.5 0 1 0 15 0 a7.5 7.5 0 1 0 -15 0zM815.77 428.98 a7.5 7.5 0 1 0 15 0 a7.5 7.5 0 1 0 -15 0zM880.73 466.48 a7.5 7.5 0 1 0 15 0 a7.5 7.5 0 1 0 -15 0zM880.73 541.48 a7.5 7.5 0 1 0 15 0 a7.5 7.5 0 1 0 -15 0zM815.77 578.98 a7.5 7.5 0 1 0 15 0 a7.5 7.5 0 1 0 -15 0zM750.82 466.48 a7.5 7.5 0 1 0 15 0 a7.5 7.5 0 1 0 -15 0zM945.68 578.98 a7.5 7.5 0 1 0 15 0 a7.5 7.5 0 1 0 -15 0zM945.68 653.98 a7.5 7.5 0 1 0 15 0 a7.5 7.5 0 1 0 -15 0zM880.73 691.48 a7.5 7.5 0 1 0 15 0 a7.5 7.5 0 1 0 -15 0zM815.77 653.98 a7.5 7.5 0 1 0 15 0 a7.5 7.5 0 1 0 -15 0zM945.68 -21.02 a7.5 7.5 0 1 0 15 0 a7.5 7.5 0 1 0 -15 0zM1010.64 16.48 a7.5 7.5 0 1 0 15 0 a7.5 7.5 0 1 0 -15 0zM1010.64 91.48 a7.5 7.5 0 1 0 15 0 a7.5 7.5 0 1 0 -15 0zM945.68 128.98 a7.5 7.5 0 1 0 15 0 a7.5 7.5 0 1 0 -15 0zM1010.64 541.48 a7.5 7.5 0 1 0 15 0 a7.5 7.5 0 1 0 -15 0zM1075.59 578.98 a7.5 7.5 0 1 0 15 0 a7.5 7.5 0 1 0 -15 0zM1075.59 653.98 a7.5 7.5 0 1 0 15 0 a7.5 7.5 0 1 0 -15 0zM1010.64 691.48 a7.5 7.5 0 1 0 15 0 a7.5 7.5 0 1 0 -15 0zM1075.59 -21.02 a7.5 7.5 0 1 0 15 0 a7.5 7.5 0 1 0 -15 0zM1140.54 16.48 a7.5 7.5 0 1 0 15 0 a7.5 7.5 0 1 0 -15 0zM1140.54 91.48 a7.5 7.5 0 1 0 15 0 a7.5 7.5 0 1 0 -15 0zM1075.59 128.98 a7.5 7.5 0 1 0 15 0 a7.5 7.5 0 1 0 -15 0zM1205.5 -21.02 a7.5 7.5 0 1 0 15 0 a7.5 7.5 0 1 0 -15 0zM1270.45 16.48 a7.5 7.5 0 1 0 15 0 a7.5 7.5 0 1 0 -15 0zM1270.45 91.48 a7.5 7.5 0 1 0 15 0 a7.5 7.5 0 1 0 -15 0zM1205.5 128.98 a7.5 7.5 0 1 0 15 0 a7.5 7.5 0 1 0 -15 0zM1205.5 203.98 a7.5 7.5 0 1 0 15 0 a7.5 7.5 0 1 0 -15 0zM1270.45 241.48 a7.5 7.5 0 1 0 15 0 a7.5 7.5 0 1 0 -15 0zM1270.45 316.48 a7.5 7.5 0 1 0 15 0 a7.5 7.5 0 1 0 -15 0zM1205.5 353.98 a7.5 7.5 0 1 0 15 0 a7.5 7.5 0 1 0 -15 0zM1140.54 316.48 a7.5 7.5 0 1 0 15 0 a7.5 7.5 0 1 0 -15 0zM1140.54 241.48 a7.5 7.5 0 1 0 15 0 a7.5 7.5 0 1 0 -15 0zM1465.31 -21.02 a7.5 7.5 0 1 0 15 0 a7.5 7.5 0 1 0 -15 0zM1530.27 16.48 a7.5 7.5 0 1 0 15 0 a7.5 7.5 0 1 0 -15 0zM1530.27 91.48 a7.5 7.5 0 1 0 15 0 a7.5 7.5 0 1 0 -15 0zM1465.31 128.98 a7.5 7.5 0 1 0 15 0 a7.5 7.5 0 1 0 -15 0zM1400.36 91.48 a7.5 7.5 0 1 0 15 0 a7.5 7.5 0 1 0 -15 0zM1400.36 16.48 a7.5 7.5 0 1 0 15 0 a7.5 7.5 0 1 0 -15 0z" fill="#03305d"></path><path d="M19.9 284.38L63.2 309.38L63.2 359.38L19.9 384.38L-23.4 359.38L-23.4 309.38zM149.81 209.38L193.11 234.38L193.11 284.38L149.81 309.38L106.5 284.38L106.5 234.38zM236.41 509.38L279.71 534.38L279.71 584.38L236.41 609.38L193.11 584.38L193.11 534.38zM323.02 209.38L366.32 234.38L366.32 284.38L323.02 309.38L279.71 284.38L279.71 234.38zM452.93 -15.62L496.23 9.38L496.23 59.38L452.93 84.38L409.62 59.38L409.62 9.38zM539.53 134.38L582.83 159.38L582.83 209.38L539.53 234.38L496.23 209.38L496.23 159.38zM582.83 359.38L626.13 384.38L626.13 434.38L582.83 459.38L539.53 434.38L539.53 384.38zM626.13 134.38L669.44 159.38L669.44 209.38L626.13 234.38L582.83 209.38L582.83 159.38zM842.65 59.38L885.95 84.38L885.95 134.38L842.65 159.38L799.35 134.38L799.35 84.38zM1145.77 -15.62L1189.07 9.38L1189.07 59.38L1145.77 84.38L1102.46 59.38L1102.46 9.38zM1189.07 59.38L1232.37 84.38L1232.37 134.38L1189.07 159.38L1145.77 134.38L1145.77 84.38zM1318.98 -15.62L1362.28 9.38L1362.28 59.38L1318.98 84.38L1275.67 59.38L1275.67 9.38z" stroke="rgba(6, 80, 156, 0.93)" stroke-width="2"></path></g><defs><mask id="SvgjsMask1005"><rect width="1440" height="560" fill="#ffffff"></rect></mask></defs></svg>